:FULLY-SPECIFIED
:FORCE-ALL-JOINTS-BE-3DOF
:DEGREES
1325
root -1.5382 14.8501 6.94658 354.697 24.2665 362.618
lfemur -0.545358 4.42377 -17.3038
ltibia 51.6176 0 0
lfoot -25.6539 26.4259 0
ltoes -14.8067 0 0
rfemur -48.9196 -8.40054 5.39937
rtibia 47.3091 0 0
rfoot 14.8368 6.63794 0
rtoes 2.23856 0 0
lowerback 12.4868 0.827404 -10.1704
upperback -2.0508 -0.447007 0.596866
thorax -9.21125 0.345629 6.50389
lowerneck -3.99388 -9.14822 -10.884
upperneck 13.9345 -12.5303 8.00124
head 6.12787 -6.21683 3.413
lclavicle 5.91562e-14 -5.85446e-16 0
lhumerus -36.4738 -42.0242 109.33
lradius 110.278 0 0
lwrist 42.7905 0 0
lhand -13.2925 46.6309 0
lfingers 7.12502 0 0
lthumb 12.8109 -283.787 0
rclavicle 5.91562e-14 -5.85446e-16 0
rhumerus 36.662 15.2315 -53.5768
rradius 97.5157 0 0
rwrist -16.1446 0 0
rhand -19.5054 -30.1981 0
rfingers 7.12502 0 0
rthumb 6.81145 -59.5123 0
1326
root -1.554 14.8248 7.11666 355.002 24.4766 362.734
lfemur 0.0513649 4.21223 -17.0997
ltibia 50.9712 0 0
lfoot -25.4669 26.6937 0
ltoes -14.9713 0 0
rfemur -49.2124 -8.74305 5.4749
rtibia 47.9348 0 0
rfoot 14.1996 6.65476 0
rtoes 1.96997 0 0
lowerback 12.444 0.867974 -10.1853
upperback -2.08669 -0.396645 0.544394
thorax -9.23575 0.371597 6.44408
lowerneck -3.81968 -9.24476 -10.9067
upperneck 13.6619 -12.6694 8.08035
head 6.03531 -6.28773 3.44137
lclavicle 5.88424e-14 -9.69682e-16 0
lhumerus -37.7524 -41.1391 109.133
lradius 109.992 0 0
lwrist 43.3105 0 0
lhand -13.2115 46.5055 0
lfingers 7.12502 0 0
lthumb 12.889 -283.918 0
rclavicle 5.88424e-14 -9.69682e-16 0
rhumerus 37.5434 14.2371 -52.6184
rradius 96.9701 0 0
rwrist -14.5602 0 0
rhand -20.3435 -30.2788 0
rfingers 7.12502 0 0
rthumb 6.00284 -59.5927 0
1327
root -1.56981 14.7994 7.28675 355.307 24.6867 362.849
lfemur 0.648088 4.00069 -16.8956
ltibia 50.3248 0 0
lfoot -25.2799 26.9616 0
ltoes -15.1358 0 0
rfemur -49.5051 -9.08556 5.55043
rtibia 48.5605 0 0
rfoot 13.5623 6.67159 0
rtoes 1.70138 0 0
lowerback 12.4011 0.908543 -10.2003
upperback -2.12257 -0.346283 0.491923
thorax -9.26025 0.397565 6.38426
lowerneck -3.64548 -9.34129 -10.9295
upperneck 13.3892 -12.8086 8.15945
head 5.94275 -6.35863 3.46974
lclavicle 5.85286e-14 -1.35392e-15 0
lhumerus -39.031 -40.2541 108.936
lradius 109.707 0 0
lwrist 43.8305 0 0
lhand -13.1305 46.3802 0
lfingers 7.12502 0 0
lthumb 12.967 -284.049 0
rclavicle 5.85286e-14 -1.35392e-15 0
rhumerus 38.4249 13.2427 -51.66
rradius 96.4245 0 0
rwrist -12.9757 0 0
rhand -21.1816 -30.3595 0
rfingers 7.12502 0 0
rthumb 5.19423 -59.6731 0
1328
root -1.58561 14.7741 7.45683 355.613 24.8969 362.965
lfemur 1.24481 3.78914 -16.6914
ltibia 49.6784 0 0
lfoot -25.0929 27.2295 0
ltoes -15.3004 0 0
rfemur -49.7979 -9.42808 5.62595
rtibia 49.1861 0 0
rfoot 12.9251 6.68841 0
rtoes 1.43279 0 0
lowerback 12.3582 0.949113 -10.2152
upperback -2.15846 -0.295921 0.439452
thorax -9.28476 0.423533 6.32445
lowerneck -3.47129 -9.43782 -10.9522
upperneck 13.1165 -12.9477 8.23855
head 5.85018 -6.42952 3.49811
lclavicle 5.82149e-14 -1.73816e-15 0
lhumerus -40.3096 -39.369 108.738
lradius 109.422 0 0
lwrist 44.3505 0 0
lhand -13.0495 46.2548 0
lfingers 7.12502 0 0
lthumb 13.0451 -284.179 0
rclavicle 5.82149e-14 -1.73816e-15 0
rhumerus 39.3063 12.2483 -50.7016
rradius 95.8789 0 0
rwrist -11.3913 0 0
rhand -22.0197 -30.4402 0
rfingers 7.12502 0 0
rthumb 4.38562 -59.7536 0
1329
root -1.60142 14.7487 7.62691 355.918 25.107 363.08
lfemur 1.84153 3.5776 -16.4873
ltibia 49.032 0 0
lfoot -24.906 27.4974 0
ltoes -15.4649 0 0
rfemur -50.0906 -9.77059 5.70148
rtibia 49.8118 0 0
rfoot 12.2879 6.70523 0
rtoes 1.16421 0 0
lowerback 12.3154 0.989682 -10.2301
upperback -2.19435 -0.245559 0.386981
thorax -9.30926 0.449501 6.26464
lowerneck -3.29709 -9.53436 -10.975
upperneck 12.8439 -13.0868 8.31765
head 5.75762 -6.50042 3.52649
lclavicle 5.79011e-14 -2.12239e-15 0
lhumerus -41.5881 -38.484 108.541
lradius 109.137 0 0
lwrist 44.8705 0 0
lhand -12.9686 46.1295 0
lfingers 7.12502 0 0
lthumb 13.1231 -284.31 0
rclavicle 5.79011e-14 -2.12239e-15 0
rhumerus 40.1878 11.2538 -49.7432
rradius 95.3332 0 0
rwrist -9.80687 0 0
rhand -22.8578 -30.5209 0
rfingers 7.12502 0 0
rthumb 3.577 -59.834 0
1330
root -1.61722 14.7233 7.797 356.224 25.3172 363.196
lfemur 2.43826 3.36606 -16.2832
ltibia 48.3856 0 0
lfoot -24.719 27.7653 0
ltoes -15.6294 0 0
rfemur -50.3834 -10.1131 5.77701
rtibia 50.4375 0 0
rfoot 11.6506 6.72206 0
rtoes 0.895617 0 0
lowerback 12.2725 1.03025 -10.245
upperback -2.23023 -0.195197 0.33451
thorax -9.33376 0.475469 6.20482
lowerneck -3.12289 -9.63089 -10.9978
upperneck 12.5712 -13.226 8.39675
head 5.66505 -6.57131 3.55486
lclavicle 5.75873e-14 -2.50663e-15 0
lhumerus -42.8667 -37.599 108.344
lradius 108.852 0 0
lwrist 45.3905 0 0
lhand -12.8876 46.0041 0
lfingers 7.12502 0 0
lthumb 13.2012 -284.44 0
rclavicle 5.75873e-14 -2.50663e-15 0
rhumerus 41.0692 10.2594 -48.7848
rradius 94.7876 0 0
rwrist -8.22244 0 0
rhand -23.6959 -30.6016 0
rfingers 7.12502 0 0
rthumb 2.76839 -59.9145 0
1331
root -1.63302 14.698 7.96708 356.529 25.5273 363.311
lfemur 3.03498 3.15452 -16.0791
ltibia 47.7392 0 0
lfoot -24.532 28.0332 0
ltoes -15.794 0 0
rfemur -50.6762 -10.4556 5.85254
rtibia 51.0631 0 0
rfoot 11.0134 6.73888 0
rtoes 0.62703 0 0
lowerback 12.2297 1.07082 -10.26
upperback -2.26612 -0.144835 0.282038
thorax -9.35826 0.501437 6.14501
lowerneck -2.94869 -9.72743 -11.0205
upperneck 12.2985 -13.3651 8.47586
head 5.57249 -6.64221 3.58323
lclavicle 5.72735e-14 -2.89086e-15 0
lhumerus -44.1453 -36.7139 108.147
lradius 108.567 0 0
lwrist 45.9105 0 0
lhand -12.8066 45.8787 0
lfingers 7.12502 0 0
lthumb 13.2792 -284.571 0
rclavicle 5.72735e-14 -2.89086e-15 0
rhumerus 41.9507 9.26502 -47.8264
rradius 94.242 0 0
rwrist -6.63802 0 0
rhand -24.534 -30.6823 0
rfingers 7.12502 0 0
rthumb 1.95978 -59.9949 0
